<?xml version="1.0" encoding="UTF-8" standalone="no"?>
<!DOCTYPE svg PUBLIC "-//W3C//DTD SVG 1.1//EN"
 "http://www.w3.org/Graphics/SVG/1.1/DTD/svg11.dtd">
<!-- Generated by graphviz version 7.0.6 (20230106.0513)
 -->
<!-- Title: G Pages: 1 -->
<svg width="707pt" height="264pt"
 viewBox="0.00 0.00 707.20 264.20" xmlns="http://www.w3.org/2000/svg" xmlns:xlink="http://www.w3.org/1999/xlink">
<g id="graph0" class="graph" transform="scale(1 1) rotate(0) translate(21.6 242.6)">
<title>G</title>
<polygon fill="#111111" stroke="none" points="-21.6,21.6 -21.6,-242.6 685.6,-242.6 685.6,21.6 -21.6,21.6"/>
<!-- data/fake_data.js -->
<g id="node1" class="node">
<title>data/fake_data.js</title>
<path fill="none" stroke="#cfffac" d="M243.33,-221C243.33,-221 134.67,-221 134.67,-221 130.83,-221 127,-217.17 127,-213.33 127,-213.33 127,-205.67 127,-205.67 127,-201.83 130.83,-198 134.67,-198 134.67,-198 243.33,-198 243.33,-198 247.17,-198 251,-201.83 251,-205.67 251,-205.67 251,-213.33 251,-213.33 251,-217.17 247.17,-221 243.33,-221"/>
<text text-anchor="middle" x="189" y="-205.8" font-family="Arial" font-size="14.00" fill="#cfffac">data/fake_data.js</text>
</g>
<!-- functions/functions.js -->
<g id="node2" class="node">
<title>functions/functions.js</title>
<path fill="none" stroke="#c6c5fe" d="M454.33,-141C454.33,-141 320.67,-141 320.67,-141 316.83,-141 313,-137.17 313,-133.33 313,-133.33 313,-125.67 313,-125.67 313,-121.83 316.83,-118 320.67,-118 320.67,-118 454.33,-118 454.33,-118 458.17,-118 462,-121.83 462,-125.67 462,-125.67 462,-133.33 462,-133.33 462,-137.17 458.17,-141 454.33,-141"/>
<text text-anchor="middle" x="387.5" y="-125.8" font-family="Arial" font-size="14.00" fill="#c6c5fe">functions/functions.js</text>
</g>
<!-- model/product.model.js -->
<g id="node3" class="node">
<title>model/product.model.js</title>
<path fill="none" stroke="#cfffac" d="M656.33,-101C656.33,-101 505.67,-101 505.67,-101 501.83,-101 498,-97.17 498,-93.33 498,-93.33 498,-85.67 498,-85.67 498,-81.83 501.83,-78 505.67,-78 505.67,-78 656.33,-78 656.33,-78 660.17,-78 664,-81.83 664,-85.67 664,-85.67 664,-93.33 664,-93.33 664,-97.17 660.17,-101 656.33,-101"/>
<text text-anchor="middle" x="581" y="-85.8" font-family="Arial" font-size="14.00" fill="#cfffac">model/product.model.js</text>
</g>
<!-- functions/functions.js&#45;&gt;model/product.model.js -->
<g id="edge1" class="edge">
<title>functions/functions.js&#45;&gt;model/product.model.js</title>
<path fill="none" stroke="#757575" d="M445.7,-117.55C466.44,-113.22 490.08,-108.28 511.68,-103.77"/>
<polygon fill="#757575" stroke="#757575" points="512.21,-107.23 521.29,-101.76 510.78,-100.38 512.21,-107.23"/>
</g>
<!-- functions/logger.js -->
<g id="node4" class="node">
<title>functions/logger.js</title>
<path fill="none" stroke="#cfffac" d="M445.83,-61C445.83,-61 329.17,-61 329.17,-61 325.33,-61 321.5,-57.17 321.5,-53.33 321.5,-53.33 321.5,-45.67 321.5,-45.67 321.5,-41.83 325.33,-38 329.17,-38 329.17,-38 445.83,-38 445.83,-38 449.67,-38 453.5,-41.83 453.5,-45.67 453.5,-45.67 453.5,-53.33 453.5,-53.33 453.5,-57.17 449.67,-61 445.83,-61"/>
<text text-anchor="middle" x="387.5" y="-45.8" font-family="Arial" font-size="14.00" fill="#cfffac">functions/logger.js</text>
</g>
<!-- functions/subscriptions.js -->
<g id="node5" class="node">
<title>functions/subscriptions.js</title>
<path fill="none" stroke="#c6c5fe" d="M269.33,-23C269.33,-23 108.67,-23 108.67,-23 104.83,-23 101,-19.17 101,-15.33 101,-15.33 101,-7.67 101,-7.67 101,-3.83 104.83,0 108.67,0 108.67,0 269.33,0 269.33,0 273.17,0 277,-3.83 277,-7.67 277,-7.67 277,-15.33 277,-15.33 277,-19.17 273.17,-23 269.33,-23"/>
<text text-anchor="middle" x="189" y="-7.8" font-family="Arial" font-size="14.00" fill="#c6c5fe">functions/subscriptions.js</text>
</g>
<!-- functions/subscriptions.js&#45;&gt;model/product.model.js -->
<g id="edge3" class="edge">
<title>functions/subscriptions.js&#45;&gt;model/product.model.js</title>
<path fill="none" stroke="#757575" d="M277.26,-7.89C331.37,-7.86 401.8,-11.86 462,-28.5 495.3,-37.71 530.04,-57.03 553.13,-71.48"/>
<polygon fill="#757575" stroke="#757575" points="550.99,-74.26 561.3,-76.71 554.76,-68.37 550.99,-74.26"/>
</g>
<!-- functions/subscriptions.js&#45;&gt;functions/logger.js -->
<g id="edge2" class="edge">
<title>functions/subscriptions.js&#45;&gt;functions/logger.js</title>
<path fill="none" stroke="#757575" d="M251.9,-23.47C271.46,-27.25 293.25,-31.47 313.5,-35.38"/>
<polygon fill="#757575" stroke="#757575" points="312.6,-38.77 323.08,-37.24 313.93,-31.9 312.6,-38.77"/>
</g>
<!-- index.js -->
<g id="node6" class="node">
<title>index.js</title>
<path fill="none" stroke="#c6c5fe" d="M57.33,-121C57.33,-121 7.67,-121 7.67,-121 3.83,-121 0,-117.17 0,-113.33 0,-113.33 0,-105.67 0,-105.67 0,-101.83 3.83,-98 7.67,-98 7.67,-98 57.33,-98 57.33,-98 61.17,-98 65,-101.83 65,-105.67 65,-105.67 65,-113.33 65,-113.33 65,-117.17 61.17,-121 57.33,-121"/>
<text text-anchor="middle" x="32.5" y="-105.8" font-family="Arial" font-size="14.00" fill="#c6c5fe">index.js</text>
</g>
<!-- index.js&#45;&gt;data/fake_data.js -->
<g id="edge4" class="edge">
<title>index.js&#45;&gt;data/fake_data.js</title>
<path fill="none" stroke="#757575" d="M41.18,-121.34C52.39,-137.69 74.79,-167.04 101,-183.5 107.28,-187.44 114.19,-190.82 121.28,-193.69"/>
<polygon fill="#757575" stroke="#757575" points="119.74,-196.86 130.34,-197.04 122.17,-190.29 119.74,-196.86"/>
</g>
<!-- index.js&#45;&gt;functions/functions.js -->
<g id="edge5" class="edge">
<title>index.js&#45;&gt;functions/functions.js</title>
<path fill="none" stroke="#757575" d="M47.68,-121.32C60.63,-131.3 80.8,-144.85 101,-150.5 179.75,-172.54 275.2,-157.58 333.36,-144.07"/>
<polygon fill="#757575" stroke="#757575" points="334.1,-147.49 343.01,-141.75 332.47,-140.68 334.1,-147.49"/>
</g>
<!-- index.js&#45;&gt;model/product.model.js -->
<g id="edge8" class="edge">
<title>index.js&#45;&gt;model/product.model.js</title>
<path fill="none" stroke="#757575" d="M65.24,-108.34C145.88,-105.39 361.03,-97.51 486.18,-92.93"/>
<polygon fill="#757575" stroke="#757575" points="486.25,-96.43 496.12,-92.57 486,-89.44 486.25,-96.43"/>
</g>
<!-- index.js&#45;&gt;functions/logger.js -->
<g id="edge6" class="edge">
<title>index.js&#45;&gt;functions/logger.js</title>
<path fill="none" stroke="#757575" d="M52.21,-97.66C65.34,-89.97 83.59,-80.48 101,-75.5 169.86,-55.8 251.52,-50.03 309.83,-48.76"/>
<polygon fill="#757575" stroke="#757575" points="309.72,-52.26 319.66,-48.58 309.6,-45.26 309.72,-52.26"/>
</g>
<!-- index.js&#45;&gt;functions/subscriptions.js -->
<g id="edge7" class="edge">
<title>index.js&#45;&gt;functions/subscriptions.js</title>
<path fill="none" stroke="#757575" d="M41.45,-97.72C52.81,-81.77 75.21,-53.46 101,-37.5 107.4,-33.54 114.43,-30.16 121.64,-27.27"/>
<polygon fill="#757575" stroke="#757575" points="122.66,-30.62 130.85,-23.9 120.26,-24.05 122.66,-30.62"/>
</g>
<!-- schema/schema.js -->
<g id="node7" class="node">
<title>schema/schema.js</title>
<path fill="none" stroke="#c6c5fe" d="M248.83,-141C248.83,-141 129.17,-141 129.17,-141 125.33,-141 121.5,-137.17 121.5,-133.33 121.5,-133.33 121.5,-125.67 121.5,-125.67 121.5,-121.83 125.33,-118 129.17,-118 129.17,-118 248.83,-118 248.83,-118 252.67,-118 256.5,-121.83 256.5,-125.67 256.5,-125.67 256.5,-133.33 256.5,-133.33 256.5,-137.17 252.67,-141 248.83,-141"/>
<text text-anchor="middle" x="189" y="-125.8" font-family="Arial" font-size="14.00" fill="#c6c5fe">schema/schema.js</text>
</g>
<!-- index.js&#45;&gt;schema/schema.js -->
<g id="edge9" class="edge">
<title>index.js&#45;&gt;schema/schema.js</title>
<path fill="none" stroke="#757575" d="M65.14,-113.6C78.26,-115.29 94.13,-117.35 110.03,-119.41"/>
<polygon fill="#757575" stroke="#757575" points="109.15,-122.82 119.52,-120.63 110.05,-115.88 109.15,-122.82"/>
</g>
<!-- schema/schema.js&#45;&gt;functions/functions.js -->
<g id="edge10" class="edge">
<title>schema/schema.js&#45;&gt;functions/functions.js</title>
<path fill="none" stroke="#757575" d="M256.8,-129.5C271.16,-129.5 286.53,-129.5 301.48,-129.5"/>
<polygon fill="#757575" stroke="#757575" points="301.29,-133 311.29,-129.5 301.29,-126 301.29,-133"/>
</g>
</g>
</svg>
