<?xml version="1.0" encoding="UTF-8" standalone="no"?>
<!DOCTYPE svg PUBLIC "-//W3C//DTD SVG 1.1//EN"
 "http://www.w3.org/Graphics/SVG/1.1/DTD/svg11.dtd">
<!-- Generated by graphviz version 7.0.6 (20230106.0513)
 -->
<!-- Title: G Pages: 1 -->
<svg width="846pt" height="168pt"
 viewBox="0.00 0.00 846.20 168.20" xmlns="http://www.w3.org/2000/svg" xmlns:xlink="http://www.w3.org/1999/xlink">
<g id="graph0" class="graph" transform="scale(1 1) rotate(0) translate(21.6 146.6)">
<title>G</title>
<polygon fill="#ffffff" stroke="none" points="-21.6,21.6 -21.6,-146.6 824.6,-146.6 824.6,21.6 -21.6,21.6"/>
<!-- data/orders.js -->
<g id="node1" class="node">
<title>data/orders.js</title>
<path fill="none" stroke="#4caf50" d="M95.33,-23C95.33,-23 7.67,-23 7.67,-23 3.83,-23 0,-19.17 0,-15.33 0,-15.33 0,-7.67 0,-7.67 0,-3.83 3.83,0 7.67,0 7.67,0 95.33,0 95.33,0 99.17,0 103,-3.83 103,-7.67 103,-7.67 103,-15.33 103,-15.33 103,-19.17 99.17,-23 95.33,-23"/>
<text text-anchor="middle" x="51.5" y="-7.8" font-family="Arial" font-size="14.00" fill="#4caf50">data/orders.js</text>
</g>
<!-- data/users.js -->
<g id="node2" class="node">
<title>data/users.js</title>
<path fill="none" stroke="#4caf50" d="M92.33,-64C92.33,-64 10.67,-64 10.67,-64 6.83,-64 3,-60.17 3,-56.33 3,-56.33 3,-48.67 3,-48.67 3,-44.83 6.83,-41 10.67,-41 10.67,-41 92.33,-41 92.33,-41 96.17,-41 100,-44.83 100,-48.67 100,-48.67 100,-56.33 100,-56.33 100,-60.17 96.17,-64 92.33,-64"/>
<text text-anchor="middle" x="51.5" y="-48.8" font-family="Arial" font-size="14.00" fill="#4caf50">data/users.js</text>
</g>
<!-- functions/benchmark_functions.js -->
<g id="node3" class="node">
<title>functions/benchmark_functions.js</title>
<path fill="none" stroke="#4caf50" d="M795.33,-104C795.33,-104 583.67,-104 583.67,-104 579.83,-104 576,-100.17 576,-96.33 576,-96.33 576,-88.67 576,-88.67 576,-84.83 579.83,-81 583.67,-81 583.67,-81 795.33,-81 795.33,-81 799.17,-81 803,-84.83 803,-88.67 803,-88.67 803,-96.33 803,-96.33 803,-100.17 799.17,-104 795.33,-104"/>
<text text-anchor="middle" x="689.5" y="-88.8" font-family="Arial" font-size="14.00" fill="#4caf50">functions/benchmark_functions.js</text>
</g>
<!-- functions/concurrentBenchmark.js -->
<g id="node4" class="node">
<title>functions/concurrentBenchmark.js</title>
<path fill="none" stroke="#9c27b0" d="M532.33,-125C532.33,-125 317.67,-125 317.67,-125 313.83,-125 310,-121.17 310,-117.33 310,-117.33 310,-109.67 310,-109.67 310,-105.83 313.83,-102 317.67,-102 317.67,-102 532.33,-102 532.33,-102 536.17,-102 540,-105.83 540,-109.67 540,-109.67 540,-117.33 540,-117.33 540,-121.17 536.17,-125 532.33,-125"/>
<text text-anchor="middle" x="425" y="-109.8" font-family="Arial" font-size="14.00" fill="#9c27b0">functions/concurrentBenchmark.js</text>
</g>
<!-- functions/concurrentBenchmark.js&#45;&gt;functions/benchmark_functions.js -->
<g id="edge1" class="edge">
<title>functions/concurrentBenchmark.js&#45;&gt;functions/benchmark_functions.js</title>
<path fill="none" stroke="#111111" d="M540.37,-104.35C548.35,-103.71 556.42,-103.07 564.45,-102.42"/>
<polygon fill="#111111" stroke="#111111" points="564.57,-105.93 574.26,-101.64 564.01,-98.95 564.57,-105.93"/>
</g>
<!-- functions/sequentialBenchmark.js -->
<g id="node5" class="node">
<title>functions/sequentialBenchmark.js</title>
<path fill="none" stroke="#9c27b0" d="M530.83,-84C530.83,-84 319.17,-84 319.17,-84 315.33,-84 311.5,-80.17 311.5,-76.33 311.5,-76.33 311.5,-68.67 311.5,-68.67 311.5,-64.83 315.33,-61 319.17,-61 319.17,-61 530.83,-61 530.83,-61 534.67,-61 538.5,-64.83 538.5,-68.67 538.5,-68.67 538.5,-76.33 538.5,-76.33 538.5,-80.17 534.67,-84 530.83,-84"/>
<text text-anchor="middle" x="425" y="-68.8" font-family="Arial" font-size="14.00" fill="#9c27b0">functions/sequentialBenchmark.js</text>
</g>
<!-- functions/sequentialBenchmark.js&#45;&gt;functions/benchmark_functions.js -->
<g id="edge2" class="edge">
<title>functions/sequentialBenchmark.js&#45;&gt;functions/benchmark_functions.js</title>
<path fill="none" stroke="#111111" d="M538.85,-81.1C547.35,-81.75 555.96,-82.4 564.52,-83.05"/>
<polygon fill="#111111" stroke="#111111" points="564,-86.52 574.24,-83.79 564.53,-79.54 564,-86.52"/>
</g>
<!-- index.js -->
<g id="node6" class="node">
<title>index.js</title>
<path fill="none" stroke="#9c27b0" d="M76.33,-105C76.33,-105 26.67,-105 26.67,-105 22.83,-105 19,-101.17 19,-97.33 19,-97.33 19,-89.67 19,-89.67 19,-85.83 22.83,-82 26.67,-82 26.67,-82 76.33,-82 76.33,-82 80.17,-82 84,-85.83 84,-89.67 84,-89.67 84,-97.33 84,-97.33 84,-101.17 80.17,-105 76.33,-105"/>
<text text-anchor="middle" x="51.5" y="-89.8" font-family="Arial" font-size="14.00" fill="#9c27b0">index.js</text>
</g>
<!-- index.js&#45;&gt;functions/concurrentBenchmark.js -->
<g id="edge3" class="edge">
<title>index.js&#45;&gt;functions/concurrentBenchmark.js</title>
<path fill="none" stroke="#111111" d="M84.21,-103.12C100.43,-107.54 120.59,-112.3 139,-114.5 190.85,-120.7 248.38,-121.62 298.1,-120.56"/>
<polygon fill="#111111" stroke="#111111" points="298.14,-124.06 308.05,-120.31 297.97,-117.06 298.14,-124.06"/>
</g>
<!-- index.js&#45;&gt;functions/sequentialBenchmark.js -->
<g id="edge4" class="edge">
<title>index.js&#45;&gt;functions/sequentialBenchmark.js</title>
<path fill="none" stroke="#111111" d="M84.21,-83.88C100.43,-79.46 120.59,-74.7 139,-72.5 191.53,-66.22 249.89,-65.18 300.05,-66.11"/>
<polygon fill="#111111" stroke="#111111" points="299.7,-69.6 309.77,-66.32 299.85,-62.6 299.7,-69.6"/>
</g>
<!-- schema/schema.js -->
<g id="node7" class="node">
<title>schema/schema.js</title>
<path fill="none" stroke="#9c27b0" d="M266.33,-105C266.33,-105 146.67,-105 146.67,-105 142.83,-105 139,-101.17 139,-97.33 139,-97.33 139,-89.67 139,-89.67 139,-85.83 142.83,-82 146.67,-82 146.67,-82 266.33,-82 266.33,-82 270.17,-82 274,-85.83 274,-89.67 274,-89.67 274,-97.33 274,-97.33 274,-101.17 270.17,-105 266.33,-105"/>
<text text-anchor="middle" x="206.5" y="-89.8" font-family="Arial" font-size="14.00" fill="#9c27b0">schema/schema.js</text>
</g>
<!-- index.js&#45;&gt;schema/schema.js -->
<g id="edge5" class="edge">
<title>index.js&#45;&gt;schema/schema.js</title>
<path fill="none" stroke="#111111" d="M84.2,-93.5C96.88,-93.5 112.09,-93.5 127.39,-93.5"/>
<polygon fill="#111111" stroke="#111111" points="127,-97 137,-93.5 127,-90 127,-97"/>
</g>
<!-- schema/schema.js&#45;&gt;functions/concurrentBenchmark.js -->
<g id="edge6" class="edge">
<title>schema/schema.js&#45;&gt;functions/concurrentBenchmark.js</title>
<path fill="none" stroke="#111111" d="M274.22,-99.66C282,-100.38 290.11,-101.13 298.35,-101.89"/>
<polygon fill="#111111" stroke="#111111" points="297.88,-105.36 308.16,-102.8 298.53,-98.39 297.88,-105.36"/>
</g>
<!-- schema/schema.js&#45;&gt;functions/sequentialBenchmark.js -->
<g id="edge7" class="edge">
<title>schema/schema.js&#45;&gt;functions/sequentialBenchmark.js</title>
<path fill="none" stroke="#111111" d="M274.22,-87.03C282.52,-86.22 291.21,-85.38 300.03,-84.52"/>
<polygon fill="#111111" stroke="#111111" points="300.15,-88.03 309.76,-83.58 299.47,-81.06 300.15,-88.03"/>
</g>
</g>
</svg>
