<?xml version="1.0" encoding="UTF-8" standalone="no"?>
<!DOCTYPE svg PUBLIC "-//W3C//DTD SVG 1.1//EN"
 "http://www.w3.org/Graphics/SVG/1.1/DTD/svg11.dtd">
<!-- Generated by graphviz version 7.0.6 (20230106.0513)
 -->
<!-- Title: G Pages: 1 -->
<svg width="1110pt" height="639pt"
 viewBox="0.00 0.00 1110.20 639.20" xmlns="http://www.w3.org/2000/svg" xmlns:xlink="http://www.w3.org/1999/xlink">
<g id="graph0" class="graph" transform="scale(1 1) rotate(0) translate(21.6 617.6)">
<title>G</title>
<polygon fill="#ffffff" stroke="none" points="-21.6,21.6 -21.6,-617.6 1088.6,-617.6 1088.6,21.6 -21.6,21.6"/>
<!-- App.css -->
<g id="node1" class="node">
<title>App.css</title>
<path fill="none" stroke="#4caf50" d="M230.83,-596C230.83,-596 177.17,-596 177.17,-596 173.33,-596 169.5,-592.17 169.5,-588.33 169.5,-588.33 169.5,-580.67 169.5,-580.67 169.5,-576.83 173.33,-573 177.17,-573 177.17,-573 230.83,-573 230.83,-573 234.67,-573 238.5,-576.83 238.5,-580.67 238.5,-580.67 238.5,-588.33 238.5,-588.33 238.5,-592.17 234.67,-596 230.83,-596"/>
<text text-anchor="middle" x="204" y="-580.8" font-family="Arial" font-size="14.00" fill="#4caf50">App.css</text>
</g>
<!-- App.js -->
<g id="node2" class="node">
<title>App.js</title>
<path fill="none" stroke="#9c27b0" d="M49.33,-293C49.33,-293 7.67,-293 7.67,-293 3.83,-293 0,-289.17 0,-285.33 0,-285.33 0,-277.67 0,-277.67 0,-273.83 3.83,-270 7.67,-270 7.67,-270 49.33,-270 49.33,-270 53.17,-270 57,-273.83 57,-277.67 57,-277.67 57,-285.33 57,-285.33 57,-289.17 53.17,-293 49.33,-293"/>
<text text-anchor="middle" x="28.5" y="-277.8" font-family="Arial" font-size="14.00" fill="#9c27b0">App.js</text>
</g>
<!-- App.js&#45;&gt;App.css -->
<g id="edge1" class="edge">
<title>App.js&#45;&gt;App.css</title>
<path fill="none" stroke="#111111" d="M30.58,-293.45C35.17,-341.49 54.58,-519.82 93,-558.5 109.84,-575.45 135.55,-582.16 157.88,-584.53"/>
<polygon fill="#111111" stroke="#111111" points="157.43,-588.01 167.67,-585.29 157.97,-581.03 157.43,-588.01"/>
</g>
<!-- components/Layout.jsx -->
<g id="node3" class="node">
<title>components/Layout.jsx</title>
<path fill="none" stroke="#9c27b0" d="M277.33,-478C277.33,-478 130.67,-478 130.67,-478 126.83,-478 123,-474.17 123,-470.33 123,-470.33 123,-462.67 123,-462.67 123,-458.83 126.83,-455 130.67,-455 130.67,-455 277.33,-455 277.33,-455 281.17,-455 285,-458.83 285,-462.67 285,-462.67 285,-470.33 285,-470.33 285,-474.17 281.17,-478 277.33,-478"/>
<text text-anchor="middle" x="204" y="-462.8" font-family="Arial" font-size="14.00" fill="#9c27b0">components/Layout.jsx</text>
</g>
<!-- App.js&#45;&gt;components/Layout.jsx -->
<g id="edge2" class="edge">
<title>App.js&#45;&gt;components/Layout.jsx</title>
<path fill="none" stroke="#111111" d="M30.56,-293.18C33.89,-322.69 46.85,-400.71 93,-440.5 98.74,-445.45 105.26,-449.5 112.18,-452.8"/>
<polygon fill="#111111" stroke="#111111" points="110.6,-455.94 121.17,-456.55 113.29,-449.47 110.6,-455.94"/>
</g>
<!-- middlewares/AdminRoute.jsx -->
<g id="node4" class="node">
<title>middlewares/AdminRoute.jsx</title>
<path fill="none" stroke="#4caf50" d="M296.33,-125C296.33,-125 111.67,-125 111.67,-125 107.83,-125 104,-121.17 104,-117.33 104,-117.33 104,-109.67 104,-109.67 104,-105.83 107.83,-102 111.67,-102 111.67,-102 296.33,-102 296.33,-102 300.17,-102 304,-105.83 304,-109.67 304,-109.67 304,-117.33 304,-117.33 304,-121.17 300.17,-125 296.33,-125"/>
<text text-anchor="middle" x="204" y="-109.8" font-family="Arial" font-size="14.00" fill="#4caf50">middlewares/AdminRoute.jsx</text>
</g>
<!-- App.js&#45;&gt;middlewares/AdminRoute.jsx -->
<g id="edge3" class="edge">
<title>App.js&#45;&gt;middlewares/AdminRoute.jsx</title>
<path fill="none" stroke="#111111" d="M31.17,-269.85C35.73,-242.58 50.97,-174.27 93,-139.5 97.22,-136.01 101.83,-132.97 106.69,-130.33"/>
<polygon fill="#111111" stroke="#111111" points="108.08,-133.54 115.6,-126.09 105.07,-127.22 108.08,-133.54"/>
</g>
<!-- middlewares/ProtectedRoute.jsx -->
<g id="node5" class="node">
<title>middlewares/ProtectedRoute.jsx</title>
<path fill="none" stroke="#4caf50" d="M307.33,-84C307.33,-84 100.67,-84 100.67,-84 96.83,-84 93,-80.17 93,-76.33 93,-76.33 93,-68.67 93,-68.67 93,-64.83 96.83,-61 100.67,-61 100.67,-61 307.33,-61 307.33,-61 311.17,-61 315,-64.83 315,-68.67 315,-68.67 315,-76.33 315,-76.33 315,-80.17 311.17,-84 307.33,-84"/>
<text text-anchor="middle" x="204" y="-68.8" font-family="Arial" font-size="14.00" fill="#4caf50">middlewares/ProtectedRoute.jsx</text>
</g>
<!-- App.js&#45;&gt;middlewares/ProtectedRoute.jsx -->
<g id="edge4" class="edge">
<title>App.js&#45;&gt;middlewares/ProtectedRoute.jsx</title>
<path fill="none" stroke="#111111" d="M29.6,-269.51C30.59,-235.85 38.29,-139.84 93,-92.5 93.66,-91.93 94.33,-91.37 95.01,-90.83"/>
<polygon fill="#111111" stroke="#111111" points="96.81,-93.84 103.14,-85.34 92.9,-88.03 96.81,-93.84"/>
</g>
<!-- pages/login.jsx -->
<g id="node6" class="node">
<title>pages/login.jsx</title>
<path fill="none" stroke="#9c27b0" d="M251.83,-43C251.83,-43 156.17,-43 156.17,-43 152.33,-43 148.5,-39.17 148.5,-35.33 148.5,-35.33 148.5,-27.67 148.5,-27.67 148.5,-23.83 152.33,-20 156.17,-20 156.17,-20 251.83,-20 251.83,-20 255.67,-20 259.5,-23.83 259.5,-27.67 259.5,-27.67 259.5,-35.33 259.5,-35.33 259.5,-39.17 255.67,-43 251.83,-43"/>
<text text-anchor="middle" x="204" y="-27.8" font-family="Arial" font-size="14.00" fill="#9c27b0">pages/login.jsx</text>
</g>
<!-- App.js&#45;&gt;pages/login.jsx -->
<g id="edge5" class="edge">
<title>App.js&#45;&gt;pages/login.jsx</title>
<path fill="none" stroke="#111111" d="M31.12,-269.52C37.16,-226.67 59.75,-81.9 93,-51.5 105.05,-40.49 121.05,-34.55 137.11,-31.54"/>
<polygon fill="#111111" stroke="#111111" points="137.31,-35.05 146.69,-30.13 136.28,-28.13 137.31,-35.05"/>
</g>
<!-- pages/logs.jsx -->
<g id="node7" class="node">
<title>pages/logs.jsx</title>
<path fill="none" stroke="#9c27b0" d="M743.83,-436C743.83,-436 651.17,-436 651.17,-436 647.33,-436 643.5,-432.17 643.5,-428.33 643.5,-428.33 643.5,-420.67 643.5,-420.67 643.5,-416.83 647.33,-413 651.17,-413 651.17,-413 743.83,-413 743.83,-413 747.67,-413 751.5,-416.83 751.5,-420.67 751.5,-420.67 751.5,-428.33 751.5,-428.33 751.5,-432.17 747.67,-436 743.83,-436"/>
<text text-anchor="middle" x="697.5" y="-420.8" font-family="Arial" font-size="14.00" fill="#9c27b0">pages/logs.jsx</text>
</g>
<!-- App.js&#45;&gt;pages/logs.jsx -->
<g id="edge6" class="edge">
<title>App.js&#45;&gt;pages/logs.jsx</title>
<path fill="none" stroke="#111111" d="M34.18,-293.43C42.62,-313.14 62.4,-352.05 93,-369.5 267.02,-468.74 516.04,-450.78 632.22,-435.06"/>
<polygon fill="#111111" stroke="#111111" points="632.46,-438.56 641.88,-433.71 631.49,-431.63 632.46,-438.56"/>
</g>
<!-- pages/pendingorders.jsx -->
<g id="node8" class="node">
<title>pages/pendingorders.jsx</title>
<path fill="none" stroke="#9c27b0" d="M282.83,-273C282.83,-273 125.17,-273 125.17,-273 121.33,-273 117.5,-269.17 117.5,-265.33 117.5,-265.33 117.5,-257.67 117.5,-257.67 117.5,-253.83 121.33,-250 125.17,-250 125.17,-250 282.83,-250 282.83,-250 286.67,-250 290.5,-253.83 290.5,-257.67 290.5,-257.67 290.5,-265.33 290.5,-265.33 290.5,-269.17 286.67,-273 282.83,-273"/>
<text text-anchor="middle" x="204" y="-257.8" font-family="Arial" font-size="14.00" fill="#9c27b0">pages/pendingorders.jsx</text>
</g>
<!-- App.js&#45;&gt;pages/pendingorders.jsx -->
<g id="edge7" class="edge">
<title>App.js&#45;&gt;pages/pendingorders.jsx</title>
<path fill="none" stroke="#111111" d="M57.38,-278.29C70.88,-276.73 87.98,-274.76 105.68,-272.72"/>
<polygon fill="#111111" stroke="#111111" points="106.02,-276.2 115.55,-271.58 105.22,-269.25 106.02,-276.2"/>
</g>
<!-- pages/productDetail.jsx -->
<g id="node9" class="node">
<title>pages/productDetail.jsx</title>
<path fill="none" stroke="#9c27b0" d="M772.33,-79C772.33,-79 622.67,-79 622.67,-79 618.83,-79 615,-75.17 615,-71.33 615,-71.33 615,-63.67 615,-63.67 615,-59.83 618.83,-56 622.67,-56 622.67,-56 772.33,-56 772.33,-56 776.17,-56 780,-59.83 780,-63.67 780,-63.67 780,-71.33 780,-71.33 780,-75.17 776.17,-79 772.33,-79"/>
<text text-anchor="middle" x="697.5" y="-63.8" font-family="Arial" font-size="14.00" fill="#9c27b0">pages/productDetail.jsx</text>
</g>
<!-- App.js&#45;&gt;pages/productDetail.jsx -->
<g id="edge8" class="edge">
<title>App.js&#45;&gt;pages/productDetail.jsx</title>
<path fill="none" stroke="#111111" d="M34.34,-269.69C43.01,-250.12 63.13,-211.15 93,-191.5 136.06,-163.17 456.4,-107.21 612.07,-81.28"/>
<polygon fill="#111111" stroke="#111111" points="612.2,-84.81 621.49,-79.71 611.05,-77.9 612.2,-84.81"/>
</g>
<!-- pages/products.jsx -->
<g id="node10" class="node">
<title>pages/products.jsx</title>
<path fill="none" stroke="#9c27b0" d="M264.83,-360C264.83,-360 143.17,-360 143.17,-360 139.33,-360 135.5,-356.17 135.5,-352.33 135.5,-352.33 135.5,-344.67 135.5,-344.67 135.5,-340.83 139.33,-337 143.17,-337 143.17,-337 264.83,-337 264.83,-337 268.67,-337 272.5,-340.83 272.5,-344.67 272.5,-344.67 272.5,-352.33 272.5,-352.33 272.5,-356.17 268.67,-360 264.83,-360"/>
<text text-anchor="middle" x="204" y="-344.8" font-family="Arial" font-size="14.00" fill="#9c27b0">pages/products.jsx</text>
</g>
<!-- App.js&#45;&gt;pages/products.jsx -->
<g id="edge9" class="edge">
<title>App.js&#45;&gt;pages/products.jsx</title>
<path fill="none" stroke="#111111" d="M43.77,-293.13C56.1,-302.63 74.77,-315.71 93,-323.5 102.82,-327.7 113.46,-331.24 124.1,-334.22"/>
<polygon fill="#111111" stroke="#111111" points="123.15,-337.59 133.71,-336.74 124.93,-330.82 123.15,-337.59"/>
</g>
<!-- pages/profile.jsx -->
<g id="node11" class="node">
<title>pages/profile.jsx</title>
<path fill="none" stroke="#9c27b0" d="M256.83,-314C256.83,-314 151.17,-314 151.17,-314 147.33,-314 143.5,-310.17 143.5,-306.33 143.5,-306.33 143.5,-298.67 143.5,-298.67 143.5,-294.83 147.33,-291 151.17,-291 151.17,-291 256.83,-291 256.83,-291 260.67,-291 264.5,-294.83 264.5,-298.67 264.5,-298.67 264.5,-306.33 264.5,-306.33 264.5,-310.17 260.67,-314 256.83,-314"/>
<text text-anchor="middle" x="204" y="-298.8" font-family="Arial" font-size="14.00" fill="#9c27b0">pages/profile.jsx</text>
</g>
<!-- App.js&#45;&gt;pages/profile.jsx -->
<g id="edge10" class="edge">
<title>App.js&#45;&gt;pages/profile.jsx</title>
<path fill="none" stroke="#111111" d="M57.38,-284.87C77.58,-287.32 105.84,-290.74 132.1,-293.92"/>
<polygon fill="#111111" stroke="#111111" points="131.35,-297.35 141.7,-295.08 132.19,-290.4 131.35,-297.35"/>
</g>
<!-- pages/shopping.jsx -->
<g id="node12" class="node">
<title>pages/shopping.jsx</title>
<path fill="none" stroke="#9c27b0" d="M513.33,-200C513.33,-200 388.67,-200 388.67,-200 384.83,-200 381,-196.17 381,-192.33 381,-192.33 381,-184.67 381,-184.67 381,-180.83 384.83,-177 388.67,-177 388.67,-177 513.33,-177 513.33,-177 517.17,-177 521,-180.83 521,-184.67 521,-184.67 521,-192.33 521,-192.33 521,-196.17 517.17,-200 513.33,-200"/>
<text text-anchor="middle" x="451" y="-184.8" font-family="Arial" font-size="14.00" fill="#9c27b0">pages/shopping.jsx</text>
</g>
<!-- App.js&#45;&gt;pages/shopping.jsx -->
<g id="edge11" class="edge">
<title>App.js&#45;&gt;pages/shopping.jsx</title>
<path fill="none" stroke="#111111" d="M43.67,-269.79C55.94,-260.3 74.57,-247.42 93,-240.5 183.92,-206.38 295.65,-194.52 369.64,-190.47"/>
<polygon fill="#111111" stroke="#111111" points="369.41,-193.98 379.22,-189.98 369.06,-186.99 369.41,-193.98"/>
</g>
<!-- utils/ContextAPI.jsx -->
<g id="node13" class="node">
<title>utils/ContextAPI.jsx</title>
<path fill="none" stroke="#4caf50" d="M1017.33,-278C1017.33,-278 893.67,-278 893.67,-278 889.83,-278 886,-274.17 886,-270.33 886,-270.33 886,-262.67 886,-262.67 886,-258.83 889.83,-255 893.67,-255 893.67,-255 1017.33,-255 1017.33,-255 1021.17,-255 1025,-258.83 1025,-262.67 1025,-262.67 1025,-270.33 1025,-270.33 1025,-274.17 1021.17,-278 1017.33,-278"/>
<text text-anchor="middle" x="955.5" y="-262.8" font-family="Arial" font-size="14.00" fill="#4caf50">utils/ContextAPI.jsx</text>
</g>
<!-- App.js&#45;&gt;utils/ContextAPI.jsx -->
<g id="edge12" class="edge">
<title>App.js&#45;&gt;utils/ContextAPI.jsx</title>
<path fill="none" stroke="#111111" d="M29.14,-293.34C28.77,-328.98 32.92,-435.96 93,-487.5 170.52,-553.99 449.34,-535.3 551,-525.5 666.83,-514.34 710.4,-538.86 808,-475.5 880.18,-428.65 927.15,-332.61 945.63,-288.97"/>
<polygon fill="#111111" stroke="#111111" points="948.85,-290.35 949.41,-279.77 942.37,-287.68 948.85,-290.35"/>
</g>
<!-- components/Layout.jsx&#45;&gt;utils/ContextAPI.jsx -->
<g id="edge13" class="edge">
<title>components/Layout.jsx&#45;&gt;utils/ContextAPI.jsx</title>
<path fill="none" stroke="#111111" d="M285.38,-471.76C427.96,-479.78 718.53,-489.81 808,-445.5 876.93,-411.36 924.72,-328.1 944.42,-288.34"/>
<polygon fill="#111111" stroke="#111111" points="947.49,-290.03 948.67,-279.5 941.19,-287 947.49,-290.03"/>
</g>
<!-- utils/loading.jsx -->
<g id="node14" class="node">
<title>utils/loading.jsx</title>
<path fill="none" stroke="#4caf50" d="M499.33,-516C499.33,-516 402.67,-516 402.67,-516 398.83,-516 395,-512.17 395,-508.33 395,-508.33 395,-500.67 395,-500.67 395,-496.83 398.83,-493 402.67,-493 402.67,-493 499.33,-493 499.33,-493 503.17,-493 507,-496.83 507,-500.67 507,-500.67 507,-508.33 507,-508.33 507,-512.17 503.17,-516 499.33,-516"/>
<text text-anchor="middle" x="451" y="-500.8" font-family="Arial" font-size="14.00" fill="#4caf50">utils/loading.jsx</text>
</g>
<!-- components/Layout.jsx&#45;&gt;utils/loading.jsx -->
<g id="edge14" class="edge">
<title>components/Layout.jsx&#45;&gt;utils/loading.jsx</title>
<path fill="none" stroke="#111111" d="M282.18,-478.47C314.66,-483.51 352.09,-489.31 383.35,-494.16"/>
<polygon fill="#111111" stroke="#111111" points="382.65,-497.6 393.07,-495.67 383.72,-490.68 382.65,-497.6"/>
</g>
<!-- components/login.jsx -->
<g id="node20" class="node">
<title>components/login.jsx</title>
<path fill="none" stroke="#4caf50" d="M518.33,-23C518.33,-23 383.67,-23 383.67,-23 379.83,-23 376,-19.17 376,-15.33 376,-15.33 376,-7.67 376,-7.67 376,-3.83 379.83,0 383.67,0 383.67,0 518.33,0 518.33,0 522.17,0 526,-3.83 526,-7.67 526,-7.67 526,-15.33 526,-15.33 526,-19.17 522.17,-23 518.33,-23"/>
<text text-anchor="middle" x="451" y="-7.8" font-family="Arial" font-size="14.00" fill="#4caf50">components/login.jsx</text>
</g>
<!-- pages/login.jsx&#45;&gt;components/login.jsx -->
<g id="edge22" class="edge">
<title>pages/login.jsx&#45;&gt;components/login.jsx</title>
<path fill="none" stroke="#111111" d="M259.98,-27.01C290.79,-24.5 329.88,-21.31 364.59,-18.47"/>
<polygon fill="#111111" stroke="#111111" points="364.5,-21.99 374.18,-17.69 363.93,-15.01 364.5,-21.99"/>
</g>
<!-- components/signup.jsx -->
<g id="node23" class="node">
<title>components/signup.jsx</title>
<path fill="none" stroke="#4caf50" d="M524.33,-64C524.33,-64 377.67,-64 377.67,-64 373.83,-64 370,-60.17 370,-56.33 370,-56.33 370,-48.67 370,-48.67 370,-44.83 373.83,-41 377.67,-41 377.67,-41 524.33,-41 524.33,-41 528.17,-41 532,-44.83 532,-48.67 532,-48.67 532,-56.33 532,-56.33 532,-60.17 528.17,-64 524.33,-64"/>
<text text-anchor="middle" x="451" y="-48.8" font-family="Arial" font-size="14.00" fill="#4caf50">components/signup.jsx</text>
</g>
<!-- pages/login.jsx&#45;&gt;components/signup.jsx -->
<g id="edge23" class="edge">
<title>pages/login.jsx&#45;&gt;components/signup.jsx</title>
<path fill="none" stroke="#111111" d="M259.98,-36.21C289.01,-38.7 325.39,-41.82 358.53,-44.66"/>
<polygon fill="#111111" stroke="#111111" points="357.86,-48.11 368.12,-45.48 358.46,-41.14 357.86,-48.11"/>
</g>
<!-- pages/logs.jsx&#45;&gt;utils/ContextAPI.jsx -->
<g id="edge24" class="edge">
<title>pages/logs.jsx&#45;&gt;utils/ContextAPI.jsx</title>
<path fill="none" stroke="#111111" d="M751.93,-417.36C770.41,-413.47 790.78,-407.53 808,-398.5 862.71,-369.79 913.09,-315.96 938.05,-286.69"/>
<polygon fill="#111111" stroke="#111111" points="940.53,-289.19 944.27,-279.28 935.16,-284.7 940.53,-289.19"/>
</g>
<!-- pages/pendingorders.jsx&#45;&gt;utils/ContextAPI.jsx -->
<g id="edge26" class="edge">
<title>pages/pendingorders.jsx&#45;&gt;utils/ContextAPI.jsx</title>
<path fill="none" stroke="#111111" d="M290.98,-251.88C310.68,-250.06 331.54,-248.43 351,-247.5 538.46,-238.53 758.9,-251.4 874.49,-259.95"/>
<polygon fill="#111111" stroke="#111111" points="873.94,-263.42 884.18,-260.67 874.47,-256.44 873.94,-263.42"/>
</g>
<!-- components/orderlist.jsx -->
<g id="node21" class="node">
<title>components/orderlist.jsx</title>
<path fill="none" stroke="#9c27b0" d="M528.83,-280C528.83,-280 373.17,-280 373.17,-280 369.33,-280 365.5,-276.17 365.5,-272.33 365.5,-272.33 365.5,-264.67 365.5,-264.67 365.5,-260.83 369.33,-257 373.17,-257 373.17,-257 528.83,-257 528.83,-257 532.67,-257 536.5,-260.83 536.5,-264.67 536.5,-264.67 536.5,-272.33 536.5,-272.33 536.5,-276.17 532.67,-280 528.83,-280"/>
<text text-anchor="middle" x="451" y="-264.8" font-family="Arial" font-size="14.00" fill="#9c27b0">components/orderlist.jsx</text>
</g>
<!-- pages/pendingorders.jsx&#45;&gt;components/orderlist.jsx -->
<g id="edge25" class="edge">
<title>pages/pendingorders.jsx&#45;&gt;components/orderlist.jsx</title>
<path fill="none" stroke="#111111" d="M290.69,-263.95C311.06,-264.53 332.94,-265.16 353.75,-265.75"/>
<polygon fill="#111111" stroke="#111111" points="353.58,-269.25 363.67,-266.03 353.78,-262.25 353.58,-269.25"/>
</g>
<!-- pages/productDetail.jsx&#45;&gt;utils/ContextAPI.jsx -->
<g id="edge29" class="edge">
<title>pages/productDetail.jsx&#45;&gt;utils/ContextAPI.jsx</title>
<path fill="none" stroke="#111111" d="M780.33,-72.47C790.42,-75.84 799.99,-80.67 808,-87.5 844.58,-118.69 814.88,-151.25 844,-189.5 863.83,-215.55 895.02,-236.13 919.21,-249.44"/>
<polygon fill="#111111" stroke="#111111" points="917.29,-252.38 927.76,-253.98 920.57,-246.2 917.29,-252.38"/>
</g>
<!-- components/incrementButton.jsx -->
<g id="node19" class="node">
<title>components/incrementButton.jsx</title>
<path fill="none" stroke="#4caf50" d="M1059.33,-181C1059.33,-181 851.67,-181 851.67,-181 847.83,-181 844,-177.17 844,-173.33 844,-173.33 844,-165.67 844,-165.67 844,-161.83 847.83,-158 851.67,-158 851.67,-158 1059.33,-158 1059.33,-158 1063.17,-158 1067,-161.83 1067,-165.67 1067,-165.67 1067,-173.33 1067,-173.33 1067,-177.17 1063.17,-181 1059.33,-181"/>
<text text-anchor="middle" x="955.5" y="-165.8" font-family="Arial" font-size="14.00" fill="#4caf50">components/incrementButton.jsx</text>
</g>
<!-- pages/productDetail.jsx&#45;&gt;components/incrementButton.jsx -->
<g id="edge27" class="edge">
<title>pages/productDetail.jsx&#45;&gt;components/incrementButton.jsx</title>
<path fill="none" stroke="#111111" d="M780.48,-76.17C790.11,-79 799.51,-82.69 808,-87.5 829.1,-99.45 824.02,-114.75 844,-128.5 859.63,-139.26 878.44,-147.6 896.08,-153.87"/>
<polygon fill="#111111" stroke="#111111" points="894.84,-157.15 905.43,-157.03 897.07,-150.51 894.84,-157.15"/>
</g>
<!-- components/userCard.jsx -->
<g id="node24" class="node">
<title>components/userCard.jsx</title>
<path fill="none" stroke="#4caf50" d="M1037.33,-79C1037.33,-79 873.67,-79 873.67,-79 869.83,-79 866,-75.17 866,-71.33 866,-71.33 866,-63.67 866,-63.67 866,-59.83 869.83,-56 873.67,-56 873.67,-56 1037.33,-56 1037.33,-56 1041.17,-56 1045,-59.83 1045,-63.67 1045,-63.67 1045,-71.33 1045,-71.33 1045,-75.17 1041.17,-79 1037.33,-79"/>
<text text-anchor="middle" x="955.5" y="-63.8" font-family="Arial" font-size="14.00" fill="#4caf50">components/userCard.jsx</text>
</g>
<!-- pages/productDetail.jsx&#45;&gt;components/userCard.jsx -->
<g id="edge28" class="edge">
<title>pages/productDetail.jsx&#45;&gt;components/userCard.jsx</title>
<path fill="none" stroke="#111111" d="M780.2,-67.5C803.7,-67.5 829.6,-67.5 854.09,-67.5"/>
<polygon fill="#111111" stroke="#111111" points="854.09,-71 864.09,-67.5 854.09,-64 854.09,-71"/>
</g>
<!-- pages/products.jsx&#45;&gt;utils/ContextAPI.jsx -->
<g id="edge31" class="edge">
<title>pages/products.jsx&#45;&gt;utils/ContextAPI.jsx</title>
<path fill="none" stroke="#111111" d="M272.88,-360.46C386.5,-377.8 621.12,-402.05 808,-345.5 853.08,-331.86 900.14,-303.57 928.39,-284.81"/>
<polygon fill="#111111" stroke="#111111" points="930.33,-287.72 936.65,-279.22 926.4,-281.92 930.33,-287.72"/>
</g>
<!-- components/ProductCard.jsx -->
<g id="node15" class="node">
<title>components/ProductCard.jsx</title>
<path fill="none" stroke="#4caf50" d="M543.33,-360C543.33,-360 358.67,-360 358.67,-360 354.83,-360 351,-356.17 351,-352.33 351,-352.33 351,-344.67 351,-344.67 351,-340.83 354.83,-337 358.67,-337 358.67,-337 543.33,-337 543.33,-337 547.17,-337 551,-340.83 551,-344.67 551,-344.67 551,-352.33 551,-352.33 551,-356.17 547.17,-360 543.33,-360"/>
<text text-anchor="middle" x="451" y="-344.8" font-family="Arial" font-size="14.00" fill="#4caf50">components/ProductCard.jsx</text>
</g>
<!-- pages/products.jsx&#45;&gt;components/ProductCard.jsx -->
<g id="edge30" class="edge">
<title>pages/products.jsx&#45;&gt;components/ProductCard.jsx</title>
<path fill="none" stroke="#111111" d="M272.92,-348.5C293.52,-348.5 316.7,-348.5 339.34,-348.5"/>
<polygon fill="#111111" stroke="#111111" points="339.23,-352 349.23,-348.5 339.23,-345 339.23,-352"/>
</g>
<!-- pages/profile.jsx&#45;&gt;utils/ContextAPI.jsx -->
<g id="edge33" class="edge">
<title>pages/profile.jsx&#45;&gt;utils/ContextAPI.jsx</title>
<path fill="none" stroke="#111111" d="M264.82,-307.63C339.97,-313.79 472.91,-323.77 587,-327.5 685.17,-330.71 711.68,-346.75 808,-327.5 849.87,-319.13 894.73,-298.54 923.62,-283.59"/>
<polygon fill="#111111" stroke="#111111" points="924.96,-286.84 932.17,-279.08 921.69,-280.65 924.96,-286.84"/>
</g>
<!-- pages/profile.jsx&#45;&gt;components/orderlist.jsx -->
<g id="edge32" class="edge">
<title>pages/profile.jsx&#45;&gt;components/orderlist.jsx</title>
<path fill="none" stroke="#111111" d="M264.93,-294.18C291.69,-290.47 323.89,-286 353.88,-281.84"/>
<polygon fill="#111111" stroke="#111111" points="354.32,-285.31 363.74,-280.47 353.36,-278.38 354.32,-285.31"/>
</g>
<!-- pages/shopping.jsx&#45;&gt;utils/ContextAPI.jsx -->
<g id="edge36" class="edge">
<title>pages/shopping.jsx&#45;&gt;utils/ContextAPI.jsx</title>
<path fill="none" stroke="#111111" d="M494.79,-176.54C562.82,-159.59 699.07,-134.15 808,-167.5 814.78,-169.58 888.09,-220.23 928.36,-248.25"/>
<polygon fill="#111111" stroke="#111111" points="926.14,-250.97 936.35,-253.82 930.14,-245.23 926.14,-250.97"/>
</g>
<!-- components/confirmpayment.jsx -->
<g id="node17" class="node">
<title>components/confirmpayment.jsx</title>
<path fill="none" stroke="#9c27b0" d="M800.33,-120C800.33,-120 594.67,-120 594.67,-120 590.83,-120 587,-116.17 587,-112.33 587,-112.33 587,-104.67 587,-104.67 587,-100.83 590.83,-97 594.67,-97 594.67,-97 800.33,-97 800.33,-97 804.17,-97 808,-100.83 808,-104.67 808,-104.67 808,-112.33 808,-112.33 808,-116.17 804.17,-120 800.33,-120"/>
<text text-anchor="middle" x="697.5" y="-104.8" font-family="Arial" font-size="14.00" fill="#9c27b0">components/confirmpayment.jsx</text>
</g>
<!-- pages/shopping.jsx&#45;&gt;components/confirmpayment.jsx -->
<g id="edge34" class="edge">
<title>pages/shopping.jsx&#45;&gt;components/confirmpayment.jsx</title>
<path fill="none" stroke="#111111" d="M513.35,-176.52C526.14,-172.89 539.29,-168.29 551,-162.5 569.17,-153.52 568.72,-143.26 587,-134.5 595.9,-130.23 605.54,-126.64 615.3,-123.62"/>
<polygon fill="#111111" stroke="#111111" points="616.23,-126.99 624.87,-120.86 614.29,-120.27 616.23,-126.99"/>
</g>
<!-- components/shoppingCard.jsx -->
<g id="node22" class="node">
<title>components/shoppingCard.jsx</title>
<path fill="none" stroke="#9c27b0" d="M794.33,-200C794.33,-200 600.67,-200 600.67,-200 596.83,-200 593,-196.17 593,-192.33 593,-192.33 593,-184.67 593,-184.67 593,-180.83 596.83,-177 600.67,-177 600.67,-177 794.33,-177 794.33,-177 798.17,-177 802,-180.83 802,-184.67 802,-184.67 802,-192.33 802,-192.33 802,-196.17 798.17,-200 794.33,-200"/>
<text text-anchor="middle" x="697.5" y="-184.8" font-family="Arial" font-size="14.00" fill="#9c27b0">components/shoppingCard.jsx</text>
</g>
<!-- pages/shopping.jsx&#45;&gt;components/shoppingCard.jsx -->
<g id="edge35" class="edge">
<title>pages/shopping.jsx&#45;&gt;components/shoppingCard.jsx</title>
<path fill="none" stroke="#111111" d="M521.41,-188.5C540.11,-188.5 560.86,-188.5 581.34,-188.5"/>
<polygon fill="#111111" stroke="#111111" points="581.16,-192 591.16,-188.5 581.16,-185 581.16,-192"/>
</g>
<!-- components/Stepper.jsx -->
<g id="node16" class="node">
<title>components/Stepper.jsx</title>
<path fill="none" stroke="#4caf50" d="M775.33,-318C775.33,-318 619.67,-318 619.67,-318 615.83,-318 612,-314.17 612,-310.33 612,-310.33 612,-302.67 612,-302.67 612,-298.83 615.83,-295 619.67,-295 619.67,-295 775.33,-295 775.33,-295 779.17,-295 783,-298.83 783,-302.67 783,-302.67 783,-310.33 783,-310.33 783,-314.17 779.17,-318 775.33,-318"/>
<text text-anchor="middle" x="697.5" y="-302.8" font-family="Arial" font-size="14.00" fill="#4caf50">components/Stepper.jsx</text>
</g>
<!-- components/confirmpayment.jsx&#45;&gt;utils/ContextAPI.jsx -->
<g id="edge16" class="edge">
<title>components/confirmpayment.jsx&#45;&gt;utils/ContextAPI.jsx</title>
<path fill="none" stroke="#111111" d="M780.16,-120.49C790.05,-124.03 799.6,-128.61 808,-134.5 831.91,-151.29 823.64,-168.54 844,-189.5 867.42,-213.61 899.37,-234.92 922.89,-248.97"/>
<polygon fill="#111111" stroke="#111111" points="921.02,-251.93 931.42,-253.96 924.56,-245.89 921.02,-251.93"/>
</g>
<!-- components/debitcard.jsx -->
<g id="node18" class="node">
<title>components/debitcard.jsx</title>
<path fill="none" stroke="#4caf50" d="M1037.33,-120C1037.33,-120 873.67,-120 873.67,-120 869.83,-120 866,-116.17 866,-112.33 866,-112.33 866,-104.67 866,-104.67 866,-100.83 869.83,-97 873.67,-97 873.67,-97 1037.33,-97 1037.33,-97 1041.17,-97 1045,-100.83 1045,-104.67 1045,-104.67 1045,-112.33 1045,-112.33 1045,-116.17 1041.17,-120 1037.33,-120"/>
<text text-anchor="middle" x="955.5" y="-104.8" font-family="Arial" font-size="14.00" fill="#4caf50">components/debitcard.jsx</text>
</g>
<!-- components/confirmpayment.jsx&#45;&gt;components/debitcard.jsx -->
<g id="edge15" class="edge">
<title>components/confirmpayment.jsx&#45;&gt;components/debitcard.jsx</title>
<path fill="none" stroke="#111111" d="M808.18,-108.5C823.43,-108.5 839.03,-108.5 854.1,-108.5"/>
<polygon fill="#111111" stroke="#111111" points="853.99,-112 863.99,-108.5 853.99,-105 853.99,-112"/>
</g>
<!-- components/orderlist.jsx&#45;&gt;utils/ContextAPI.jsx -->
<g id="edge19" class="edge">
<title>components/orderlist.jsx&#45;&gt;utils/ContextAPI.jsx</title>
<path fill="none" stroke="#111111" d="M536.96,-268.16C631.16,-267.79 781.97,-267.19 874.24,-266.82"/>
<polygon fill="#111111" stroke="#111111" points="874.24,-270.32 884.23,-266.78 874.22,-263.32 874.24,-270.32"/>
</g>
<!-- components/orderlist.jsx&#45;&gt;components/Stepper.jsx -->
<g id="edge17" class="edge">
<title>components/orderlist.jsx&#45;&gt;components/Stepper.jsx</title>
<path fill="none" stroke="#111111" d="M529.03,-280.47C554.14,-284.38 582.23,-288.74 608.11,-292.76"/>
<polygon fill="#111111" stroke="#111111" points="607.53,-296.21 617.95,-294.29 608.6,-289.3 607.53,-296.21"/>
</g>
<!-- components/orderlist.jsx&#45;&gt;components/shoppingCard.jsx -->
<g id="edge18" class="edge">
<title>components/orderlist.jsx&#45;&gt;components/shoppingCard.jsx</title>
<path fill="none" stroke="#111111" d="M488.6,-256.52C531.4,-242.52 602.34,-219.31 649.25,-203.96"/>
<polygon fill="#111111" stroke="#111111" points="650.19,-207.33 658.61,-200.9 648.01,-200.68 650.19,-207.33"/>
</g>
<!-- components/shoppingCard.jsx&#45;&gt;utils/ContextAPI.jsx -->
<g id="edge21" class="edge">
<title>components/shoppingCard.jsx&#45;&gt;utils/ContextAPI.jsx</title>
<path fill="none" stroke="#111111" d="M753.95,-200.44C771.36,-204.52 790.57,-209.35 808,-214.5 844.03,-225.14 884.2,-239.59 913.35,-250.55"/>
<polygon fill="#111111" stroke="#111111" points="911.94,-253.76 922.53,-254.03 914.42,-247.22 911.94,-253.76"/>
</g>
<!-- components/shoppingCard.jsx&#45;&gt;components/incrementButton.jsx -->
<g id="edge20" class="edge">
<title>components/shoppingCard.jsx&#45;&gt;components/incrementButton.jsx</title>
<path fill="none" stroke="#111111" d="M802.26,-180.8C812.23,-180.06 822.4,-179.3 832.52,-178.55"/>
<polygon fill="#111111" stroke="#111111" points="832.69,-182.05 842.41,-177.82 832.17,-175.07 832.69,-182.05"/>
</g>
</g>
</svg>
