<?xml version="1.0" encoding="UTF-8" standalone="no"?>
<!DOCTYPE svg PUBLIC "-//W3C//DTD SVG 1.1//EN"
 "http://www.w3.org/Graphics/SVG/1.1/DTD/svg11.dtd">
<!-- Generated by graphviz version 7.0.6 (20230106.0513)
 -->
<!-- Title: G Pages: 1 -->
<svg width="685pt" height="187pt"
 viewBox="0.00 0.00 685.20 187.20" xmlns="http://www.w3.org/2000/svg" xmlns:xlink="http://www.w3.org/1999/xlink">
<g id="graph0" class="graph" transform="scale(1 1) rotate(0) translate(21.6 165.6)">
<title>G</title>
<polygon fill="#111111" stroke="none" points="-21.6,21.6 -21.6,-165.6 663.6,-165.6 663.6,21.6 -21.6,21.6"/>
<!-- functions/camunda.js -->
<g id="node1" class="node">
<title>functions/camunda.js</title>
<path fill="none" stroke="#c6c5fe" d="M446.33,-123C446.33,-123 312.67,-123 312.67,-123 308.83,-123 305,-119.17 305,-115.33 305,-115.33 305,-107.67 305,-107.67 305,-103.83 308.83,-100 312.67,-100 312.67,-100 446.33,-100 446.33,-100 450.17,-100 454,-103.83 454,-107.67 454,-107.67 454,-115.33 454,-115.33 454,-119.17 450.17,-123 446.33,-123"/>
<text text-anchor="middle" x="379.5" y="-107.8" font-family="Arial" font-size="14.00" fill="#c6c5fe">functions/camunda.js</text>
</g>
<!-- functions/logger.js -->
<g id="node2" class="node">
<title>functions/logger.js</title>
<path fill="none" stroke="#cfffac" d="M624.33,-23C624.33,-23 507.67,-23 507.67,-23 503.83,-23 500,-19.17 500,-15.33 500,-15.33 500,-7.67 500,-7.67 500,-3.83 503.83,0 507.67,0 507.67,0 624.33,0 624.33,0 628.17,0 632,-3.83 632,-7.67 632,-7.67 632,-15.33 632,-15.33 632,-19.17 628.17,-23 624.33,-23"/>
<text text-anchor="middle" x="566" y="-7.8" font-family="Arial" font-size="14.00" fill="#cfffac">functions/logger.js</text>
</g>
<!-- functions/camunda.js&#45;&gt;functions/logger.js -->
<g id="edge1" class="edge">
<title>functions/camunda.js&#45;&gt;functions/logger.js</title>
<path fill="none" stroke="#757575" d="M437.73,-99.62C443.44,-97.36 448.97,-94.68 454,-91.5 474.78,-78.36 470.66,-64.68 490,-49.5 500.48,-41.27 513.02,-34.08 524.82,-28.24"/>
<polygon fill="#757575" stroke="#757575" points="526.02,-31.54 533.56,-24.1 523.02,-25.21 526.02,-31.54"/>
</g>
<!-- model/order.model.js -->
<g id="node3" class="node">
<title>model/order.model.js</title>
<path fill="none" stroke="#cfffac" d="M634.33,-82C634.33,-82 497.67,-82 497.67,-82 493.83,-82 490,-78.17 490,-74.33 490,-74.33 490,-66.67 490,-66.67 490,-62.83 493.83,-59 497.67,-59 497.67,-59 634.33,-59 634.33,-59 638.17,-59 642,-62.83 642,-66.67 642,-66.67 642,-74.33 642,-74.33 642,-78.17 638.17,-82 634.33,-82"/>
<text text-anchor="middle" x="566" y="-66.8" font-family="Arial" font-size="14.00" fill="#cfffac">model/order.model.js</text>
</g>
<!-- functions/camunda.js&#45;&gt;model/order.model.js -->
<g id="edge2" class="edge">
<title>functions/camunda.js&#45;&gt;model/order.model.js</title>
<path fill="none" stroke="#757575" d="M434.36,-99.53C454.92,-94.96 478.58,-89.7 500.06,-84.93"/>
<polygon fill="#757575" stroke="#757575" points="500.59,-88.4 509.59,-82.81 499.07,-81.57 500.59,-88.4"/>
</g>
<!-- functions/functions.js -->
<g id="node4" class="node">
<title>functions/functions.js</title>
<path fill="none" stroke="#c6c5fe" d="M446.33,-82C446.33,-82 312.67,-82 312.67,-82 308.83,-82 305,-78.17 305,-74.33 305,-74.33 305,-66.67 305,-66.67 305,-62.83 308.83,-59 312.67,-59 312.67,-59 446.33,-59 446.33,-59 450.17,-59 454,-62.83 454,-66.67 454,-66.67 454,-74.33 454,-74.33 454,-78.17 450.17,-82 446.33,-82"/>
<text text-anchor="middle" x="379.5" y="-66.8" font-family="Arial" font-size="14.00" fill="#c6c5fe">functions/functions.js</text>
</g>
<!-- functions/functions.js&#45;&gt;model/order.model.js -->
<g id="edge3" class="edge">
<title>functions/functions.js&#45;&gt;model/order.model.js</title>
<path fill="none" stroke="#757575" d="M454.48,-70.5C462.38,-70.5 470.48,-70.5 478.51,-70.5"/>
<polygon fill="#757575" stroke="#757575" points="478.29,-74 488.29,-70.5 478.29,-67 478.29,-74"/>
</g>
<!-- functions/subcriptions.js -->
<g id="node5" class="node">
<title>functions/subcriptions.js</title>
<path fill="none" stroke="#c6c5fe" d="M261.33,-23C261.33,-23 108.67,-23 108.67,-23 104.83,-23 101,-19.17 101,-15.33 101,-15.33 101,-7.67 101,-7.67 101,-3.83 104.83,0 108.67,0 108.67,0 261.33,0 261.33,0 265.17,0 269,-3.83 269,-7.67 269,-7.67 269,-15.33 269,-15.33 269,-19.17 265.17,-23 261.33,-23"/>
<text text-anchor="middle" x="185" y="-7.8" font-family="Arial" font-size="14.00" fill="#c6c5fe">functions/subcriptions.js</text>
</g>
<!-- functions/subcriptions.js&#45;&gt;functions/logger.js -->
<g id="edge5" class="edge">
<title>functions/subcriptions.js&#45;&gt;functions/logger.js</title>
<path fill="none" stroke="#757575" d="M269.17,-11.5C334.54,-11.5 424.86,-11.5 488.46,-11.5"/>
<polygon fill="#757575" stroke="#757575" points="488.1,-15 498.1,-11.5 488.1,-8 488.1,-15"/>
</g>
<!-- functions/subcriptions.js&#45;&gt;model/order.model.js -->
<g id="edge6" class="edge">
<title>functions/subcriptions.js&#45;&gt;model/order.model.js</title>
<path fill="none" stroke="#757575" d="M269.45,-22.32C322.41,-29.44 392.34,-39.3 454,-49.5 466.85,-51.63 480.5,-54.06 493.68,-56.5"/>
<polygon fill="#757575" stroke="#757575" points="492.64,-59.87 503.11,-58.27 493.93,-52.99 492.64,-59.87"/>
</g>
<!-- functions/subcriptions.js&#45;&gt;functions/functions.js -->
<g id="edge4" class="edge">
<title>functions/subcriptions.js&#45;&gt;functions/functions.js</title>
<path fill="none" stroke="#757575" d="M224.96,-23.44C254.96,-32.64 296.65,-45.41 329.01,-55.33"/>
<polygon fill="#757575" stroke="#757575" points="327.57,-58.55 338.16,-58.13 329.62,-51.86 327.57,-58.55"/>
</g>
<!-- index.js -->
<g id="node6" class="node">
<title>index.js</title>
<path fill="none" stroke="#c6c5fe" d="M57.33,-83C57.33,-83 7.67,-83 7.67,-83 3.83,-83 0,-79.17 0,-75.33 0,-75.33 0,-67.67 0,-67.67 0,-63.83 3.83,-60 7.67,-60 7.67,-60 57.33,-60 57.33,-60 61.17,-60 65,-63.83 65,-67.67 65,-67.67 65,-75.33 65,-75.33 65,-79.17 61.17,-83 57.33,-83"/>
<text text-anchor="middle" x="32.5" y="-67.8" font-family="Arial" font-size="14.00" fill="#c6c5fe">index.js</text>
</g>
<!-- index.js&#45;&gt;functions/functions.js -->
<g id="edge7" class="edge">
<title>index.js&#45;&gt;functions/functions.js</title>
<path fill="none" stroke="#757575" d="M65.43,-70.93C76.67,-70.75 89.4,-70.59 101,-70.5 165.43,-70.02 238.27,-70.04 293.16,-70.17"/>
<polygon fill="#757575" stroke="#757575" points="293.07,-73.67 303.08,-70.2 293.08,-66.67 293.07,-73.67"/>
</g>
<!-- index.js&#45;&gt;functions/subcriptions.js -->
<g id="edge8" class="edge">
<title>index.js&#45;&gt;functions/subcriptions.js</title>
<path fill="none" stroke="#757575" d="M54.97,-59.56C68.03,-52.58 85.19,-43.91 101,-37.5 110.35,-33.71 120.48,-30.12 130.34,-26.9"/>
<polygon fill="#757575" stroke="#757575" points="131.39,-30.24 139.86,-23.87 129.27,-23.57 131.39,-30.24"/>
</g>
<!-- load_orders.js -->
<g id="node7" class="node">
<title>load_orders.js</title>
<path fill="none" stroke="#c6c5fe" d="M230.83,-144C230.83,-144 139.17,-144 139.17,-144 135.33,-144 131.5,-140.17 131.5,-136.33 131.5,-136.33 131.5,-128.67 131.5,-128.67 131.5,-124.83 135.33,-121 139.17,-121 139.17,-121 230.83,-121 230.83,-121 234.67,-121 238.5,-124.83 238.5,-128.67 238.5,-128.67 238.5,-136.33 238.5,-136.33 238.5,-140.17 234.67,-144 230.83,-144"/>
<text text-anchor="middle" x="185" y="-128.8" font-family="Arial" font-size="14.00" fill="#c6c5fe">load_orders.js</text>
</g>
<!-- index.js&#45;&gt;load_orders.js -->
<g id="edge9" class="edge">
<title>index.js&#45;&gt;load_orders.js</title>
<path fill="none" stroke="#757575" d="M49.93,-83.48C63.14,-92.61 82.49,-104.87 101,-112.5 107.29,-115.1 114,-117.4 120.77,-119.44"/>
<polygon fill="#757575" stroke="#757575" points="119.38,-122.69 129.96,-122.02 121.28,-115.95 119.38,-122.69"/>
</g>
<!-- schema/schema.js -->
<g id="node8" class="node">
<title>schema/schema.js</title>
<path fill="none" stroke="#c6c5fe" d="M244.83,-103C244.83,-103 125.17,-103 125.17,-103 121.33,-103 117.5,-99.17 117.5,-95.33 117.5,-95.33 117.5,-87.67 117.5,-87.67 117.5,-83.83 121.33,-80 125.17,-80 125.17,-80 244.83,-80 244.83,-80 248.67,-80 252.5,-83.83 252.5,-87.67 252.5,-87.67 252.5,-95.33 252.5,-95.33 252.5,-99.17 248.67,-103 244.83,-103"/>
<text text-anchor="middle" x="185" y="-87.8" font-family="Arial" font-size="14.00" fill="#c6c5fe">schema/schema.js</text>
</g>
<!-- index.js&#45;&gt;schema/schema.js -->
<g id="edge10" class="edge">
<title>index.js&#45;&gt;schema/schema.js</title>
<path fill="none" stroke="#757575" d="M65.42,-75.74C77.45,-77.34 91.72,-79.24 106.13,-81.15"/>
<polygon fill="#757575" stroke="#757575" points="105.26,-84.57 115.63,-82.41 106.18,-77.63 105.26,-84.57"/>
</g>
<!-- load_orders.js&#45;&gt;functions/camunda.js -->
<g id="edge11" class="edge">
<title>load_orders.js&#45;&gt;functions/camunda.js</title>
<path fill="none" stroke="#757575" d="M238.86,-126.73C255.8,-124.89 275.02,-122.79 293.66,-120.76"/>
<polygon fill="#757575" stroke="#757575" points="293.79,-124.26 303.35,-119.7 293.03,-117.3 293.79,-124.26"/>
</g>
<!-- load_orders.js&#45;&gt;functions/functions.js -->
<g id="edge12" class="edge">
<title>load_orders.js&#45;&gt;functions/functions.js</title>
<path fill="none" stroke="#757575" d="M238.97,-122.18C249.11,-119.53 259.51,-116.32 269,-112.5 286.19,-105.59 287.96,-98.77 305,-91.5 309.59,-89.54 314.41,-87.71 319.3,-86"/>
<polygon fill="#757575" stroke="#757575" points="320.21,-89.39 328.62,-82.95 318.03,-82.74 320.21,-89.39"/>
</g>
<!-- schema/schema.js&#45;&gt;functions/camunda.js -->
<g id="edge13" class="edge">
<title>schema/schema.js&#45;&gt;functions/camunda.js</title>
<path fill="none" stroke="#757575" d="M252.79,-98.44C265.85,-99.8 279.72,-101.24 293.29,-102.65"/>
<polygon fill="#757575" stroke="#757575" points="292.78,-106.11 303.09,-103.66 293.5,-99.15 292.78,-106.11"/>
</g>
<!-- schema/schema.js&#45;&gt;functions/functions.js -->
<g id="edge14" class="edge">
<title>schema/schema.js&#45;&gt;functions/functions.js</title>
<path fill="none" stroke="#757575" d="M252.79,-84.21C265.85,-82.79 279.72,-81.28 293.29,-79.8"/>
<polygon fill="#757575" stroke="#757575" points="293.53,-83.29 303.09,-78.73 292.77,-76.33 293.53,-83.29"/>
</g>
</g>
</svg>
