<?xml version="1.0" encoding="UTF-8" standalone="no"?>
<!DOCTYPE svg PUBLIC "-//W3C//DTD SVG 1.1//EN"
 "http://www.w3.org/Graphics/SVG/1.1/DTD/svg11.dtd">
<!-- Generated by graphviz version 7.0.6 (20230106.0513)
 -->
<!-- Title: G Pages: 1 -->
<svg width="746pt" height="225pt"
 viewBox="0.00 0.00 746.20 225.20" xmlns="http://www.w3.org/2000/svg" xmlns:xlink="http://www.w3.org/1999/xlink">
<g id="graph0" class="graph" transform="scale(1 1) rotate(0) translate(21.6 203.6)">
<title>G</title>
<polygon fill="#ffffff" stroke="none" points="-21.6,21.6 -21.6,-203.6 724.6,-203.6 724.6,21.6 -21.6,21.6"/>
<!-- data/fake_data.js -->
<g id="node1" class="node">
<title>data/fake_data.js</title>
<path fill="none" stroke="#4caf50" d="M263.33,-182C263.33,-182 154.67,-182 154.67,-182 150.83,-182 147,-178.17 147,-174.33 147,-174.33 147,-166.67 147,-166.67 147,-162.83 150.83,-159 154.67,-159 154.67,-159 263.33,-159 263.33,-159 267.17,-159 271,-162.83 271,-166.67 271,-166.67 271,-174.33 271,-174.33 271,-178.17 267.17,-182 263.33,-182"/>
<text text-anchor="middle" x="209" y="-166.8" font-family="Arial" font-size="14.00" fill="#4caf50">data/fake_data.js</text>
</g>
<!-- functions/functions.js -->
<g id="node2" class="node">
<title>functions/functions.js</title>
<path fill="none" stroke="#9c27b0" d="M503.83,-104C503.83,-104 370.17,-104 370.17,-104 366.33,-104 362.5,-100.17 362.5,-96.33 362.5,-96.33 362.5,-88.67 362.5,-88.67 362.5,-84.83 366.33,-81 370.17,-81 370.17,-81 503.83,-81 503.83,-81 507.67,-81 511.5,-84.83 511.5,-88.67 511.5,-88.67 511.5,-96.33 511.5,-96.33 511.5,-100.17 507.67,-104 503.83,-104"/>
<text text-anchor="middle" x="437" y="-88.8" font-family="Arial" font-size="14.00" fill="#9c27b0">functions/functions.js</text>
</g>
<!-- functions/logger.js -->
<g id="node3" class="node">
<title>functions/logger.js</title>
<path fill="none" stroke="#4caf50" d="M688.33,-104C688.33,-104 571.67,-104 571.67,-104 567.83,-104 564,-100.17 564,-96.33 564,-96.33 564,-88.67 564,-88.67 564,-84.83 567.83,-81 571.67,-81 571.67,-81 688.33,-81 688.33,-81 692.17,-81 696,-84.83 696,-88.67 696,-88.67 696,-96.33 696,-96.33 696,-100.17 692.17,-104 688.33,-104"/>
<text text-anchor="middle" x="630" y="-88.8" font-family="Arial" font-size="14.00" fill="#4caf50">functions/logger.js</text>
</g>
<!-- functions/functions.js&#45;&gt;functions/logger.js -->
<g id="edge1" class="edge">
<title>functions/functions.js&#45;&gt;functions/logger.js</title>
<path fill="none" stroke="#111111" d="M511.85,-92.5C525.21,-92.5 539.18,-92.5 552.62,-92.5"/>
<polygon fill="#111111" stroke="#111111" points="552.24,-96 562.24,-92.5 552.24,-89 552.24,-96"/>
</g>
<!-- model/user.model.js -->
<g id="node4" class="node">
<title>model/user.model.js</title>
<path fill="none" stroke="#4caf50" d="M695.33,-63C695.33,-63 564.67,-63 564.67,-63 560.83,-63 557,-59.17 557,-55.33 557,-55.33 557,-47.67 557,-47.67 557,-43.83 560.83,-40 564.67,-40 564.67,-40 695.33,-40 695.33,-40 699.17,-40 703,-43.83 703,-47.67 703,-47.67 703,-55.33 703,-55.33 703,-59.17 699.17,-63 695.33,-63"/>
<text text-anchor="middle" x="630" y="-47.8" font-family="Arial" font-size="14.00" fill="#4caf50">model/user.model.js</text>
</g>
<!-- functions/functions.js&#45;&gt;model/user.model.js -->
<g id="edge2" class="edge">
<title>functions/functions.js&#45;&gt;model/user.model.js</title>
<path fill="none" stroke="#111111" d="M493.76,-80.53C515.14,-75.94 539.76,-70.66 562.08,-65.86"/>
<polygon fill="#111111" stroke="#111111" points="562.65,-69.32 571.69,-63.8 561.18,-62.48 562.65,-69.32"/>
</g>
<!-- functions/subcriptions.js -->
<g id="node5" class="node">
<title>functions/subcriptions.js</title>
<path fill="none" stroke="#9c27b0" d="M513.33,-63C513.33,-63 360.67,-63 360.67,-63 356.83,-63 353,-59.17 353,-55.33 353,-55.33 353,-47.67 353,-47.67 353,-43.83 356.83,-40 360.67,-40 360.67,-40 513.33,-40 513.33,-40 517.17,-40 521,-43.83 521,-47.67 521,-47.67 521,-55.33 521,-55.33 521,-59.17 517.17,-63 513.33,-63"/>
<text text-anchor="middle" x="437" y="-47.8" font-family="Arial" font-size="14.00" fill="#9c27b0">functions/subcriptions.js</text>
</g>
<!-- functions/subcriptions.js&#45;&gt;functions/logger.js -->
<g id="edge3" class="edge">
<title>functions/subcriptions.js&#45;&gt;functions/logger.js</title>
<path fill="none" stroke="#111111" d="M493.76,-63.47C515.14,-68.06 539.76,-73.34 562.08,-78.14"/>
<polygon fill="#111111" stroke="#111111" points="561.18,-81.52 571.69,-80.2 562.65,-74.68 561.18,-81.52"/>
</g>
<!-- functions/subcriptions.js&#45;&gt;model/user.model.js -->
<g id="edge4" class="edge">
<title>functions/subcriptions.js&#45;&gt;model/user.model.js</title>
<path fill="none" stroke="#111111" d="M521.5,-51.5C529.39,-51.5 537.39,-51.5 545.28,-51.5"/>
<polygon fill="#111111" stroke="#111111" points="545.23,-55 555.23,-51.5 545.23,-48 545.23,-55"/>
</g>
<!-- functions/winston&#45;workaround.js -->
<g id="node6" class="node">
<title>functions/winston&#45;workaround.js</title>
<path fill="none" stroke="#4caf50" d="M309.33,-23C309.33,-23 108.67,-23 108.67,-23 104.83,-23 101,-19.17 101,-15.33 101,-15.33 101,-7.67 101,-7.67 101,-3.83 104.83,0 108.67,0 108.67,0 309.33,0 309.33,0 313.17,0 317,-3.83 317,-7.67 317,-7.67 317,-15.33 317,-15.33 317,-19.17 313.17,-23 309.33,-23"/>
<text text-anchor="middle" x="209" y="-7.8" font-family="Arial" font-size="14.00" fill="#4caf50">functions/winston&#45;workaround.js</text>
</g>
<!-- index.js -->
<g id="node7" class="node">
<title>index.js</title>
<path fill="none" stroke="#9c27b0" d="M57.33,-101C57.33,-101 7.67,-101 7.67,-101 3.83,-101 0,-97.17 0,-93.33 0,-93.33 0,-85.67 0,-85.67 0,-81.83 3.83,-78 7.67,-78 7.67,-78 57.33,-78 57.33,-78 61.17,-78 65,-81.83 65,-85.67 65,-85.67 65,-93.33 65,-93.33 65,-97.17 61.17,-101 57.33,-101"/>
<text text-anchor="middle" x="32.5" y="-85.8" font-family="Arial" font-size="14.00" fill="#9c27b0">index.js</text>
</g>
<!-- index.js&#45;&gt;data/fake_data.js -->
<g id="edge5" class="edge">
<title>index.js&#45;&gt;data/fake_data.js</title>
<path fill="none" stroke="#111111" d="M43.09,-101.49C55.07,-115.59 76.94,-138.58 101,-150.5 111.76,-155.83 123.77,-159.75 135.75,-162.62"/>
<polygon fill="#111111" stroke="#111111" points="134.71,-165.98 145.23,-164.66 136.19,-159.13 134.71,-165.98"/>
</g>
<!-- index.js&#45;&gt;functions/functions.js -->
<g id="edge6" class="edge">
<title>index.js&#45;&gt;functions/functions.js</title>
<path fill="none" stroke="#111111" d="M65.42,-89.74C126.52,-90.19 261.83,-91.2 350.93,-91.87"/>
<polygon fill="#111111" stroke="#111111" points="350.83,-95.37 360.86,-91.94 350.89,-88.37 350.83,-95.37"/>
</g>
<!-- index.js&#45;&gt;functions/subcriptions.js -->
<g id="edge7" class="edge">
<title>index.js&#45;&gt;functions/subcriptions.js</title>
<path fill="none" stroke="#111111" d="M65.42,-86.49C124.44,-80.91 252.72,-68.8 341.69,-60.4"/>
<polygon fill="#111111" stroke="#111111" points="341.75,-63.91 351.37,-59.49 341.09,-56.95 341.75,-63.91"/>
</g>
<!-- index.js&#45;&gt;functions/winston&#45;workaround.js -->
<g id="edge8" class="edge">
<title>index.js&#45;&gt;functions/winston&#45;workaround.js</title>
<path fill="none" stroke="#111111" d="M45.38,-77.81C58.1,-65.94 79.39,-47.87 101,-37.5 109.83,-33.26 119.41,-29.68 129.08,-26.66"/>
<polygon fill="#111111" stroke="#111111" points="129.94,-30.06 138.56,-23.91 127.98,-23.34 129.94,-30.06"/>
</g>
<!-- schema/schema.js -->
<g id="node8" class="node">
<title>schema/schema.js</title>
<path fill="none" stroke="#9c27b0" d="M268.83,-141C268.83,-141 149.17,-141 149.17,-141 145.33,-141 141.5,-137.17 141.5,-133.33 141.5,-133.33 141.5,-125.67 141.5,-125.67 141.5,-121.83 145.33,-118 149.17,-118 149.17,-118 268.83,-118 268.83,-118 272.67,-118 276.5,-121.83 276.5,-125.67 276.5,-125.67 276.5,-133.33 276.5,-133.33 276.5,-137.17 272.67,-141 268.83,-141"/>
<text text-anchor="middle" x="209" y="-125.8" font-family="Arial" font-size="14.00" fill="#9c27b0">schema/schema.js</text>
</g>
<!-- index.js&#45;&gt;schema/schema.js -->
<g id="edge9" class="edge">
<title>index.js&#45;&gt;schema/schema.js</title>
<path fill="none" stroke="#111111" d="M65.1,-96.74C87.29,-101.83 117.71,-108.8 144.78,-115.01"/>
<polygon fill="#111111" stroke="#111111" points="143.75,-118.36 154.28,-117.19 145.31,-111.54 143.75,-118.36"/>
</g>
<!-- schema/schema.js&#45;&gt;functions/functions.js -->
<g id="edge10" class="edge">
<title>schema/schema.js&#45;&gt;functions/functions.js</title>
<path fill="none" stroke="#111111" d="M276.89,-118.55C300.37,-114.71 327.05,-110.34 351.77,-106.29"/>
<polygon fill="#111111" stroke="#111111" points="352.17,-109.77 361.47,-104.7 351.04,-102.86 352.17,-109.77"/>
</g>
</g>
</svg>
